<svg width="131" height="117" viewBox="0 0 131 117" fill="none" xmlns="http://www.w3.org/2000/svg">
<ellipse cx="65.5" cy="58.0399" rx="65.5" ry="52.0718" fill="white"/>
<path d="M110.858 85.7916C110.371 92.7978 111.959 99.7921 115.424 105.901L115.781 106.531L123.092 116.677L120.766 116.464C102.789 114.821 85.081 110.985 68.0365 105.039L110.858 85.7916Z" fill="white"/>
<path d="M41.0308 39.2403C44.8778 18.1619 65.9843 4.92881 86.6332 10.6491L92.3565 12.2346C99.2981 15.0293 103.845 21.7616 103.845 29.2446V35.8087L103.415 39.7841C102.081 52.0998 95.3126 63.1747 84.9609 69.9789C78.3514 74.3233 70.4602 76.2889 62.5852 75.5524L54.0114 74.7506L52.5904 81.2674C51.1899 87.6904 56.6688 93.52 63.1662 92.5204L65.121 92.2197C68.4976 91.7002 71.7367 93.7622 72.6952 97.0413L73.1505 98.5988C73.6024 100.145 73.4323 101.806 72.6763 103.229C69.9963 108.271 64.3832 111.026 58.7549 110.059L45.9416 107.86C42.5777 107.282 39.4249 105.83 36.7994 103.65C30.9003 98.7499 28.3181 90.9111 30.1502 83.4646L41.0308 39.2403Z" fill="#EC1F26"/>
<path d="M60.2043 41.3393C61.1785 35.7627 64.9526 31.0792 70.1946 28.9417L71.8896 28.2505C75.1229 26.9321 78.8187 27.4925 81.5158 29.7101C83.0096 30.9384 83.9444 32.7176 84.1082 34.6445L84.4134 38.2359C85.4213 50.0933 75.0947 59.7833 63.3252 58.0239L57.4431 57.1446L60.2043 41.3393Z" fill="white"/>
</svg>
