<svg width="64" height="57" viewBox="0 0 64 57" fill="none" xmlns="http://www.w3.org/2000/svg">
<ellipse cx="32" cy="28.3553" rx="32" ry="25.4396" fill="#EC1F26"/>
<path d="M54.1594 41.9135V41.9135C53.9217 45.3363 54.6977 48.7534 56.3904 51.7379L56.5649 52.0456L60.1367 57.0023L59.0002 56.8985C50.2176 56.096 41.5663 54.2214 33.2392 51.3166V51.3166L54.1594 41.9135Z" fill="#EC1F26"/>
<path d="M20.0456 19.1708V19.1708C21.925 8.87298 32.2366 2.40797 42.3246 5.20262L45.1207 5.97722V5.97722C48.512 7.34255 50.7335 10.6316 50.7335 14.2875V17.4943L50.5232 19.4365C49.8717 25.4533 46.5649 30.864 41.5076 34.1882V34.1882C38.2786 36.3106 34.4233 37.2709 30.5759 36.9111L26.3872 36.5194L25.693 39.7032C25.0088 42.8411 27.6855 45.6892 30.8598 45.2008L31.8148 45.0539C33.4644 44.8001 35.0469 45.8075 35.5152 47.4095L35.7376 48.1704C35.9584 48.9257 35.8753 49.7375 35.506 50.4323V50.4323C34.1966 52.896 31.4544 54.2415 28.7047 53.7694L22.4447 52.6949C20.8013 52.4127 19.261 51.7034 17.9783 50.638V50.638C15.0963 48.2442 13.8348 44.4146 14.7299 40.7766L20.0456 19.1708Z" fill="white"/>
<path d="M29.4127 20.1963C29.8887 17.4719 31.7325 15.1838 34.2935 14.1395L35.1216 13.8018C36.7012 13.1577 38.5068 13.4315 39.8245 14.5149V14.5149C40.5543 15.115 41.011 15.9842 41.091 16.9256L41.2401 18.6801C41.7325 24.4731 36.6875 29.2071 30.9375 28.3476L28.0638 27.918L29.4127 20.1963Z" fill="#EC1F26"/>
</svg>
